# xmcd
#
# Track frame offsets:
#	150
#	14057
#	29497
#	44682
#	61130
#	78937
#	96255
#	111507
#	126460
#	143210
#	158187
#	174170
#	190910
#	207575
#	222505
#	238002
#	253817
#	266747
#	280610
#	299152
#	312455
#	325870
#	328112
#	330122
#	332417
#	334855
#	336485
#	338570
#	340437
#	343202
#	345387
#	348055
#	348720
#	349382
#
# Disc length: 4667
#
# Revision: 1
# Processed by: cddbd v1.5.1PL0 Copyright (c) Steve Scherf et al.
# Submitted via: VisiTrax 2.9.5.180 - For more info visit www.synapsa.com
# Normalized: r0:DSETVAR1
#
DISCID=39123922
DTITLE=Various Artist - CDX 91 September 1994
DYEAR=1994
DGENRE=
TTITLE0=John Anderson - Country 'til I die
TTITLE1=Bryan White - Eugene (you genius)
TTITLE2=Terry McBride and The Ride - High hopes and empty pockets
TTITLE3=Tracy Lawrence - I see it now
TTITLE4=Bryan Austin - Is it just me
TTITLE5=Alan Jackson - Livin' on love
TTITLE6=Amie Comeaux - Moving out
TTITLE7=Gibson/Miller Band - Red, white and blue collar
TTITLE8=Mary Chapin Carpenter - Shut up and kiss me
TTITLE9=Faith Hill - Take me as I am
TTITLE10=Travis Tritt - Ten feet tall and bulletproof
TTITLE11=Hal Ketchum - That's what I get for losin' you
TTITLE12=Lee Roy Parnell - The power of love
TTITLE13=Mavericks - There goes my heart
TTITLE14=Clint Black - Untanglin' my mind
TTITLE15=Rhett Atkins - What hey're talking about
TTITLE16=Ricky Van Shelton - Wherever she is
TTITLE17=Eddy Raven - Wild eyed and crazy
TTITLE18=Doud Supernaw - You never even call me by my name
TTITLE19=Red Hots - Teach your children
TTITLE20=Dan Seals - Love thing
TTITLE21=Waylon Jennings - Intro
TTITLE22=Waylon Jennings - Intro
TTITLE23=Waylon Jennings - Intro
TTITLE24=Waylon Jennings - Intro
TTITLE25=Waylon Jennings - Intro
TTITLE26=Waylon Jennings - Intro
TTITLE27=Waylon Jennings - Intro
TTITLE28=Waylon Jennings - Intro
TTITLE29=Waylon Jennings - Intro
TTITLE30=Waylon Jennings - Intro
TTITLE31=Waylon Jennings - Intro
TTITLE32=Waylon Jennings - Intro
TTITLE33=Waylon Jenningsv - Intro
EXTD=
EXTT0=
EXTT1=
EXTT2=
EXTT3=
EXTT4=
EXTT5=
EXTT6=
EXTT7=
EXTT8=
EXTT9=
EXTT10=
EXTT11=
EXTT12=
EXTT13=
EXTT14=
EXTT15=
EXTT16=
EXTT17=
EXTT18=
EXTT19=
EXTT20=
EXTT21=
EXTT22=
EXTT23=
EXTT24=
EXTT25=
EXTT26=
EXTT27=
EXTT28=
EXTT29=
EXTT30=
EXTT31=
EXTT32=
EXTT33=
PLAYORDER=
